Coordinates
version=1
nRows=17
nColumns=40
inDegrees=yes
endheader
time	pelvis_tilt	pelvis_list	pelvis_rotation	pelvis_tx	pelvis_ty	pelvis_tz	hip_flexion_r	hip_adduction_r	hip_rotation_r	knee_angle_r	knee_angle_r_beta	ankle_angle_r	subtalar_angle_r	mtp_angle_r	hip_flexion_l	hip_adduction_l	hip_rotation_l	knee_angle_l	knee_angle_l_beta	ankle_angle_l	subtalar_angle_l	mtp_angle_l	lumbar_extension	lumbar_bending	lumbar_rotation	arm_flex_r	arm_add_r	arm_rot_r	elbow_flex_r	pro_sup_r	wrist_flex_r	wrist_dev_r	arm_flex_l	arm_add_l	arm_rot_l	elbow_flex_l	pro_sup_l	wrist_flex_l	wrist_dev_l
1760625412.26900005	      7.07196207	     -0.62464792	      2.21575497	     -0.01447266	      0.94236221	     -0.00032778	     80.00000000	     -7.00000000	      0.00000000	     80.00000000	      1.39626340	      0.00000000	      0.00000000	      0.00000000	     80.00000000	     -7.00000000	      0.00000000	     80.00000000	      1.39626340	      0.00000000	      0.00000000	      0.00000000	     -5.68912282	     -0.26017535	      2.29157980	      1.70552559	     -5.18662150	     -2.02087939	      3.02080200	      0.00000000	     -3.63489316	      4.17236514	      0.41761909	     -5.32640494	      1.76866840	      6.47153850	      0.00000000	     -7.55825724	      3.05357357
1760625412.30200005	      7.09010827	     -0.64387837	      2.23184445	     -0.01449438	      0.94234916	     -0.00081759	     80.00000000	     -7.00000000	      0.00000000	     80.00000000	      1.39626340	      0.00000000	      0.00000000	      0.00000000	     80.00000000	     -7.00000000	      0.00000000	     80.00000000	      1.39626340	      0.00000000	      0.00000000	      0.00000000	     -5.68315256	     -0.25991967	      2.30978678	      1.70555461	     -5.18608464	     -2.05038500	      3.01889001	      0.00000000	     -3.62998449	      4.18399677	      0.44323568	     -5.31553373	      1.81416487	      6.47907475	      0.00000000	     -7.56117044	      3.04551209
1760625412.33599997	      7.32249208	     -0.86089043	      2.26211210	     -0.01495374	      0.94252766	     -0.00150640	     80.00000000	     -7.00000000	      0.00000000	     80.00000000	      1.39626340	      0.00000000	      0.00000000	      0.00000000	     80.00000000	     -7.00000000	      0.00000000	     80.00000000	      1.39626340	      0.00000000	      0.00000000	      0.00000000	     -5.91931572	     -0.01384979	      2.29957534	      1.76729307	     -5.25156988	     -2.02761309	      2.97844192	      0.00000000	     -3.59139704	      4.22391882	      0.46378899	     -5.26275953	      1.85238424	      6.52214364	      0.00000000	     -7.56772818	      3.03769848
1760625412.36899996	      7.33098108	     -0.86958302	      2.28716724	     -0.01525144	      0.94248527	     -0.00194196	     80.00000000	     -7.00000000	      0.00000000	     80.00000000	      1.39626340	      0.00000000	      0.00000000	      0.00000000	     80.00000000	     -7.00000000	      0.00000000	     80.00000000	      1.39626340	      0.00000000	      0.00000000	      0.00000000	     -5.91739723	     -0.02421384	      2.32491668	      1.77286320	     -5.23474295	     -1.98468701	      2.99558245	      0.00000000	     -3.58263853	      4.24021287	      0.46095370	     -5.26320228	      1.90798232	      6.52819013	      0.00000000	     -7.56569230	      3.03448052
1760625412.40300012	      7.33612140	     -0.86322304	      2.29512790	     -0.01496670	      0.94245950	     -0.00258603	     80.00000000	     -7.00000000	      0.00000000	     80.00000000	      1.39626340	      0.00000000	      0.00000000	      0.00000000	     80.00000000	     -7.00000000	      0.00000000	     80.00000000	      1.39626340	      0.00000000	      0.00000000	      0.00000000	     -5.93267175	     -0.01409943	      2.33347180	      1.79849459	     -5.24075265	     -2.00295930	      2.99830413	      0.00000000	     -3.58915325	      4.24060435	      0.45164517	     -5.22911968	      1.96635426	      6.52516232	      0.00000000	     -7.57650399	      3.01464513
1760625412.43600011	      7.32899284	     -0.86078636	      2.29908029	     -0.01432998	      0.94240831	     -0.00313075	     80.00000000	     -7.00000000	      0.00000000	     80.00000000	      1.39626340	      0.00000000	      0.00000000	      0.00000000	     80.00000000	     -7.00000000	      0.00000000	     80.00000000	      1.39626340	      0.00000000	      0.00000000	      0.00000000	     -5.97710487	      0.00049203	      2.33851543	      1.87373659	     -5.25723985	     -2.03282588	      3.00078973	      0.00000000	     -3.61032008	      4.26483882	      0.44632945	     -5.18171393	      1.98201042	      6.54587959	      0.00000000	     -7.54629291	      2.98680932
1760625412.47000003	      7.34254877	     -0.87126348	      2.32108978	     -0.01358047	      0.94233045	     -0.00318709	     80.00000000	     -7.00000000	      0.00000000	     80.00000000	      1.39626340	      0.00000000	      0.00000000	      0.00000000	     80.00000000	     -7.00000000	      0.00000000	     80.00000000	      1.39626340	      0.00000000	      0.00000000	      0.00000000	     -5.96913575	     -0.01257990	      2.36002786	      1.85388791	     -5.21897974	     -2.03402658	      2.98210948	      0.00000000	     -3.63151669	      4.29730259	      0.41690621	     -5.20008301	      2.01084578	      6.53467080	      0.00000000	     -7.55923513	      2.98235733
1760625412.50300002	      7.34315766	     -0.86119940	      2.33388482	     -0.01315643	      0.94238619	     -0.00300507	     80.00000000	     -7.00000000	      0.00000000	     80.00000000	      1.39626340	      0.00000000	      0.00000000	      0.00000000	     80.00000000	     -7.00000000	      0.00000000	     80.00000000	      1.39626340	      0.00000000	      0.00000000	      0.00000000	     -5.98389024	     -0.02636299	      2.37558122	      1.88667269	     -5.19515901	     -2.04783382	      2.96669584	      0.00000000	     -3.66462628	      4.30547691	      0.38533361	     -5.19792517	      1.97577108	      6.54892850	      0.00000000	     -7.54419959	      2.95218978
1760625412.53699994	      7.33716315	     -0.85739947	      2.34343529	     -0.01318408	      0.94242561	     -0.00286591	     80.00000000	     -7.00000000	      0.00000000	     80.00000000	      1.39626340	      0.00000000	      0.00000000	      0.00000000	     80.00000000	     -7.00000000	      0.00000000	     80.00000000	      1.39626340	      0.00000000	      0.00000000	      0.00000000	     -5.99306400	     -0.02838303	      2.38464577	      1.88783244	     -5.18635467	     -2.02997881	      2.96723203	      0.00000000	     -3.66879761	      4.31034196	      0.38425725	     -5.20652772	      2.00529912	      6.55134371	      0.00000000	     -7.54761050	      2.94696184
1760625412.56999993	      7.35208879	     -0.81925054	      2.35015933	     -0.01262419	      0.94286741	     -0.00223873	     80.00000000	     -7.00000000	      0.00000000	     80.00000000	      1.39626340	      0.00000000	      0.00000000	      0.00000000	     80.00000000	     -7.00000000	      0.00000000	     80.00000000	      1.39626340	      0.00000000	      0.00000000	      0.00000000	     -6.00304106	     -0.08192492	      2.39957090	      1.84980354	     -5.14470260	     -2.02885053	      2.95954698	      0.00000000	     -3.68372716	      4.27863589	      0.35283615	     -5.26838398	      1.99388311	      6.59403836	      0.00000000	     -7.58430245	      2.98559517
1760625412.60400009	      7.35513234	     -0.81632322	      2.36016591	     -0.01269699	      0.94313174	     -0.00204866	     80.00000000	     -7.00000000	      0.00000000	     80.00000000	      1.39626340	      0.00000000	      0.00000000	      0.00000000	     80.00000000	     -7.00000000	      0.00000000	     80.00000000	      1.39626340	      0.00000000	      0.00000000	      0.00000000	     -6.00225551	     -0.09134721	      2.40980327	      1.84104815	     -5.14591654	     -2.03676330	      2.95114287	      0.00000000	     -3.69133584	      4.27767077	      0.34346112	     -5.28079128	      1.97690415	      6.57898997	      0.00000000	     -7.60311382	      2.96792161
1760625412.63700008	      7.35541222	     -0.81272435	      2.36770301	     -0.01276613	      0.94308339	     -0.00223988	     80.00000000	     -7.00000000	      0.00000000	     80.00000000	      1.39626340	      0.00000000	      0.00000000	      0.00000000	     80.00000000	     -7.00000000	      0.00000000	     80.00000000	      1.39626340	      0.00000000	      0.00000000	      0.00000000	     -6.00453272	     -0.09482989	      2.41904585	      1.83728152	     -5.15341318	     -2.02467456	      2.95050181	      0.00000000	     -3.69082042	      4.27016888	      0.34041637	     -5.28018127	      1.99058790	      6.57827908	      0.00000000	     -7.60901447	      2.96606917
1760625412.67100000	      7.35195108	     -0.79743639	      2.37896210	     -0.01235137	      0.94297849	     -0.00264709	     80.00000000	     -7.00000000	      0.00000000	     80.00000000	      1.39626340	      0.00000000	      0.00000000	      0.00000000	     80.00000000	     -7.00000000	      0.00000000	     80.00000000	      1.39626340	      0.00000000	      0.00000000	      0.00000000	     -6.01069072	     -0.10760545	      2.43852863	      1.85628555	     -5.18248535	     -2.08665459	      2.96313619	      0.00000000	     -3.70323466	      4.26113361	      0.34118861	     -5.27582604	      2.00494874	      6.59553676	      0.00000000	     -7.60220015	      2.97121090
1760625412.70400000	      7.34923847	     -0.79769142	      2.38019261	     -0.01271452	      0.94315354	     -0.00269669	     80.00000000	     -7.00000000	      0.00000000	     80.00000000	      1.39626340	      0.00000000	      0.00000000	      0.00000000	     80.00000000	     -7.00000000	      0.00000000	     80.00000000	      1.39626340	      0.00000000	      0.00000000	      0.00000000	     -6.01462353	     -0.11053362	      2.44051744	      1.85182761	     -5.18120332	     -2.08510032	      2.96220843	      0.00000000	     -3.70604179	      4.26328389	      0.34596153	     -5.27249737	      2.00707509	      6.60091446	      0.00000000	     -7.59710096	      2.97310230
1760625412.73699999	      7.36420989	     -0.70532914	      2.36265704	     -0.01247529	      0.94292000	     -0.00276814	     80.00000000	     -7.00000000	      0.00000000	     80.00000000	      1.39626340	      0.00000000	      0.00000000	      0.00000000	     80.00000000	     -7.00000000	      0.00000000	     80.00000000	      1.39626340	      0.00000000	      0.00000000	      0.00000000	     -6.04892414	     -0.20212917	      2.46599384	      1.78168926	     -5.22794250	     -2.01723867	      3.04128371	      0.00000000	     -3.69516541	      4.30609390	      0.37509121	     -5.26704293	      2.05568680	      6.56268758	      0.00000000	     -7.57199101	      2.98667670
1760625412.77099991	      7.35019084	     -0.69465417	      2.35333918	     -0.01225737	      0.94304802	     -0.00281414	     80.00000000	     -7.00000000	      0.00000000	     80.00000000	      1.39626340	      0.00000000	      0.00000000	      0.00000000	     80.00000000	     -7.00000000	      0.00000000	     80.00000000	      1.39626340	      0.00000000	      0.00000000	      0.00000000	     -6.06472043	     -0.20558524	      2.46300608	      1.80618961	     -5.23404543	     -2.00710295	      3.06079840	      0.00000000	     -3.67578668	      4.29019042	      0.38796706	     -5.25552124	      2.05866054	      6.58111019	      0.00000000	     -7.53606665	      2.99680876
1760625412.80399990	      7.21239365	     -0.41259796	      2.15965805	     -0.01114669	      0.94294066	     -0.00283798	     80.00000000	     -7.00000000	      0.00000000	     80.00000000	      1.39626340	      0.00000000	      0.00000000	      0.00000000	     80.00000000	     -7.00000000	      0.00000000	     80.00000000	      1.39626340	      0.00000000	      0.00000000	      0.00000000	     -5.95058020	     -0.51159725	      2.62936101	      1.84324917	     -5.22186582	     -1.99979444	      3.03028736	      0.00000000	     -3.65771202	      4.30148066	      0.42450156	     -5.25495701	      2.13180368	      6.09299846	      0.00000000	     -7.07332843	      3.11567015
